<svg width="23" height="24" viewBox="0 0 23 24" fill="none" xmlns="http://www.w3.org/2000/svg">
<path d="M12.3924 2.30484C12.0695 2.14124 11.7068 2.03999 11.3468 2.08921C11.4691 2.12671 11.585 2.18296 11.701 2.23781C11.7539 2.55609 11.945 2.82468 12.1998 2.99999C11.8931 3.02999 11.5304 2.93718 11.2797 3.17765C11.0979 3.32624 11.0674 3.57562 11.0343 3.79734C11.2609 3.78937 11.4901 3.81703 11.7149 3.77859C11.7839 3.57609 11.7834 3.33609 11.9486 3.18234C12.1515 2.93906 12.4774 2.95265 12.7582 2.95124C12.5746 2.78062 12.4528 2.55281 12.3924 2.30484Z" fill="#E3F3FB"/>
<path d="M13.479 3.51373C13.4195 3.51373 13.3595 3.51373 13.2995 3.51373C13.4777 3.79639 13.5587 4.12639 13.5945 4.4592C13.6604 4.14045 13.5744 3.81608 13.479 3.51373Z" fill="#E3F3FB"/>
<path d="M12.9135 3.9328L12.9189 3.9628C12.9986 4.29608 12.9095 4.63218 12.8952 4.96546C12.9193 5.18811 13.2193 5.10843 13.2829 5.29921C13.3599 5.49514 13.2489 5.74171 13.0514 5.79655C12.9211 5.83593 12.794 5.93249 12.815 6.0928C12.8047 6.98717 12.2226 7.84358 11.4086 8.12577C12.275 8.18014 13.1181 7.55155 13.3828 6.69186C13.4728 6.44764 13.4714 6.18374 13.505 5.92874C13.5592 5.70421 13.865 5.75671 13.9434 5.55046C13.9859 5.45014 13.9922 5.30483 13.8995 5.23311C13.7696 5.17124 13.6246 5.15389 13.4952 5.08921C13.2601 4.97343 13.0873 4.73061 13.0487 4.46155C13.0246 4.28014 12.9905 4.09874 12.9135 3.9328Z" fill="#E3F3FB"/>
<path d="M11.9548 8.66241C11.8966 8.67038 11.8384 8.67835 11.7802 8.68679C11.6087 8.71163 11.4345 8.71351 11.2613 8.71491C11.2617 8.98351 11.2613 9.25163 11.2617 9.51976C11.2384 9.54507 11.1918 9.59616 11.1686 9.62148C11.2644 9.72648 11.3557 9.8371 11.4636 9.92898C11.6396 9.77148 11.7869 9.58304 11.9539 9.41617C11.9562 9.16491 11.9557 8.91366 11.9548 8.66241Z" fill="#E3F3FB"/>
<path d="M13.6926 9.99606C13.458 9.90981 13.2242 9.81981 12.9892 9.7345C12.9551 9.80622 12.9211 9.87747 12.8871 9.94918C13.3075 10.0612 13.6442 10.462 13.6639 10.9204C13.6698 11.4675 13.6644 12.015 13.6662 12.5625C13.8869 12.5625 14.1077 12.5625 14.3284 12.562C14.3275 12 14.3298 11.4375 14.3284 10.875C14.3293 10.4784 14.0472 10.1161 13.6926 9.99606Z" fill="#E3F3FB"/>
<path d="M19.509 11.6817C19.2216 11.5373 18.9063 11.4342 18.5839 11.4586C18.6726 11.4937 18.759 11.535 18.845 11.5767C18.8987 11.8866 19.0801 12.1552 19.3326 12.3244C19.3308 12.3333 19.3272 12.3511 19.3254 12.36C19.505 12.3244 19.6886 12.3253 19.8704 12.3281C19.6886 12.157 19.5636 11.9311 19.509 11.6817Z" fill="#E9ECEF"/>
<path d="M5.29177 11.6789C4.99401 11.5322 4.6667 11.4272 4.33401 11.4596C4.42088 11.4942 4.50595 11.5346 4.59013 11.5758C4.64566 11.8655 4.79789 12.151 5.05491 12.2921C5.16506 12.3694 5.30297 12.3314 5.42655 12.3371C5.50222 12.3338 5.57834 12.3296 5.65356 12.3263C5.47222 12.1542 5.34819 11.9278 5.29177 11.6789Z" fill="#E9ECEF"/>
<path d="M19.2458 12.3806C19.2337 12.3736 19.209 12.3595 19.197 12.3525C18.9113 12.3258 18.5665 12.3197 18.3646 12.5728C18.2114 12.7336 18.2249 12.9731 18.1519 13.1728C18.3677 13.1653 18.5844 13.1864 18.7993 13.1611C18.8876 13.1081 18.8638 12.9801 18.8943 12.893C18.9247 12.6726 19.0908 12.4978 19.2596 12.3994L19.2458 12.3806Z" fill="#E9ECEF"/>
<path d="M5.00659 12.3849C4.88704 12.315 4.74465 12.3474 4.61435 12.345C4.40972 12.3436 4.2033 12.4355 4.07972 12.6094C3.95479 12.7688 3.95883 12.9839 3.90285 13.1723C4.11062 13.1681 4.31838 13.1798 4.52525 13.1681C4.64166 13.1686 4.65734 13.0111 4.66495 12.9211C4.6654 12.6853 4.84764 12.5222 5.00659 12.3849Z" fill="#E9ECEF"/>
<path d="M20.5918 12.8892C20.5318 12.8883 20.4714 12.8878 20.4114 12.8873C20.5994 13.1733 20.6554 13.515 20.7199 13.8473C20.7597 13.5225 20.6917 13.1958 20.5918 12.8892Z" fill="#E3F3FB"/>
<path d="M6.51061 13.8431C6.52897 13.5225 6.49539 13.1883 6.36599 12.8944C6.323 12.8911 6.23703 12.8841 6.19405 12.8808C6.26838 13.021 6.34539 13.1616 6.39196 13.3149C6.44703 13.4869 6.45151 13.672 6.51061 13.8431Z" fill="#E3F3FB"/>
<path d="M6.11158 14.2298C5.88725 13.9598 5.96337 13.5698 5.79322 13.2726C5.86262 13.5291 5.84248 13.8009 5.80039 14.0606C5.79054 14.1708 5.74934 14.2987 5.82009 14.3967C5.90158 14.4956 6.05382 14.4769 6.13665 14.5748C6.25844 14.7501 6.1765 15.0365 5.98173 15.1125C5.88322 15.1659 5.72919 15.1908 5.71262 15.3305C5.69024 15.5339 5.68845 15.7411 5.63292 15.9389C5.45337 16.6753 4.88695 17.2931 4.18755 17.5008C4.79561 17.5786 5.42248 17.3114 5.83755 16.8469C6.19576 16.4545 6.38158 15.9159 6.39053 15.3773C6.37979 15.1734 6.58486 15.1223 6.72322 15.0539C6.89964 14.9714 6.93994 14.61 6.71337 14.5739C6.48949 14.5148 6.25441 14.4328 6.11158 14.2298Z" fill="#E9ECEF"/>
<path d="M20.1678 13.8764C20.1409 13.7189 20.1203 13.5591 20.0688 13.4077C20.1396 13.703 20.0455 13.9992 20.037 14.2945C20.0554 14.5191 20.3491 14.4436 20.4217 14.6241C20.5081 14.8237 20.3921 15.0802 20.1888 15.1359C20.0608 15.173 19.9385 15.2672 19.9587 15.4242C19.9506 16.3702 19.2991 17.2627 18.4242 17.5064C19.0538 17.58 19.699 17.2833 20.1091 16.7855C20.436 16.3969 20.6012 15.8817 20.6061 15.3675C20.6021 15.1927 20.77 15.1247 20.8994 15.0741C21.0732 15.0173 21.1529 14.7441 21.0167 14.6095C20.9173 14.5603 20.8076 14.5411 20.7038 14.5036C20.4355 14.4145 20.222 14.1656 20.1678 13.8764Z" fill="#E9ECEF"/>
<path d="M19.0747 18.0248C18.8531 18.0605 18.6287 18.0778 18.404 18.0684C18.3999 18.3281 18.4152 18.5887 18.3977 18.848C18.361 18.908 18.3113 18.9581 18.267 19.0125C18.3646 19.1147 18.4635 19.215 18.5647 19.3134C18.7317 19.1367 18.9019 18.9633 19.0729 18.7908C19.0761 18.5353 19.0743 18.2803 19.0747 18.0248Z" fill="#E9ECEF"/>
<path d="M4.83596 18.0253C4.60894 18.0661 4.37835 18.0792 4.14865 18.0656C4.1482 18.3305 4.14954 18.5958 4.1473 18.8611C4.1088 18.9 4.07029 18.9394 4.03133 18.9792C4.13566 19.0908 4.23999 19.2024 4.34477 19.3135C4.50865 19.1391 4.67073 18.9628 4.83506 18.7889C4.83685 18.5344 4.83596 18.2799 4.83596 18.0253Z" fill="#E9ECEF"/>
<path d="M20.8304 19.3425C20.5931 19.253 20.3558 19.1648 20.1185 19.0748C20.0862 19.1442 20.0535 19.2136 20.0204 19.2825C20.4592 19.3917 20.8058 19.8201 20.8089 20.2964C20.8098 20.8434 20.8085 21.3905 20.8089 21.9375C21.0221 21.9375 21.2347 21.9375 21.4479 21.9375C21.4483 21.3909 21.4474 20.8448 21.4488 20.2983C21.4631 19.8872 21.2056 19.4747 20.8304 19.3425Z" fill="#E9ECEF"/>
<path d="M6.59254 19.342C6.35792 19.2544 6.12419 19.1639 5.88867 19.0795C5.85867 19.1522 5.82867 19.2248 5.79911 19.298C6.22538 19.4081 6.54866 19.838 6.55314 20.2964C6.55448 20.8434 6.55269 21.3905 6.55314 21.9375C6.77165 21.9375 6.9906 21.9375 7.20911 21.9375C7.20866 21.3595 7.21045 20.7816 7.20866 20.2036C7.21582 19.815 6.93642 19.4625 6.59254 19.342Z" fill="#E9ECEF"/>
<path d="M19.6957 11.1515C18.626 10.5923 17.2295 10.9419 16.4898 11.9174C16.0228 12.5118 15.7989 13.3148 15.9095 14.0783C15.734 14.2068 15.5777 14.3877 15.5481 14.6183C15.4716 15.006 15.6793 15.4148 16.016 15.5858C16.089 16.5158 16.6434 17.3844 17.4498 17.7894C17.294 17.8626 17.1202 17.9019 16.9823 18.0116C16.8363 18.1358 16.8972 18.3505 16.8749 18.5202C16.5596 18.6655 16.2175 18.7452 15.9122 18.9135C15.468 19.183 15.1649 19.7076 15.1783 20.2494C15.1823 20.908 15.1747 21.5662 15.1819 22.2247C15.1765 22.394 15.3372 22.5205 15.4922 22.4999C17.448 22.5004 19.4038 22.4994 21.3596 22.5004C21.4922 22.4985 21.6256 22.5083 21.7572 22.491C21.8974 22.4671 21.9941 22.3208 21.9843 22.176C21.9869 21.5497 21.9838 20.9235 21.9856 20.2972C21.9847 19.8566 21.8083 19.4165 21.4953 19.1188C21.1505 18.779 20.6593 18.7162 20.2393 18.5235C20.2268 18.3533 20.2872 18.1307 20.1346 18.0107C19.9998 17.9198 19.8431 17.8729 19.6966 17.8054C20.4395 17.4224 20.9947 16.6537 21.1071 15.7902C21.1259 15.7035 21.1107 15.583 21.2083 15.5446C21.4957 15.3712 21.661 15.0093 21.6131 14.6662C21.592 14.4229 21.4438 14.2124 21.2459 14.0901C21.3122 13.5327 21.2428 12.9379 20.975 12.4452C20.7359 12.2052 20.4162 12.0702 20.1681 11.8396C20.0351 11.7173 20.0607 11.5185 20.0002 11.3605C19.9313 11.2504 19.8019 11.2105 19.6957 11.1515ZM19.509 11.6816C19.5637 11.931 19.6886 12.1569 19.8704 12.328C19.6886 12.3252 19.505 12.3243 19.3254 12.3599C19.3089 12.3698 19.2762 12.3894 19.2596 12.3993C19.0908 12.4977 18.9247 12.6726 18.8943 12.8929C18.8638 12.9801 18.8875 13.108 18.7993 13.161C18.5844 13.1863 18.3677 13.1652 18.1519 13.1727C17.8613 13.1755 17.5702 13.1624 17.2796 13.1788C16.8856 13.2135 16.5516 13.528 16.4329 13.9162C16.3443 13.1291 16.7092 12.3168 17.3266 11.8644C17.6907 11.5991 18.1375 11.4318 18.584 11.4585C18.9063 11.4341 19.2216 11.5373 19.509 11.6816ZM20.5917 12.8891C20.6916 13.1957 20.7596 13.5224 20.7198 13.8473C20.6553 13.5149 20.5993 13.1732 20.4113 12.8873C20.4713 12.8877 20.5317 12.8882 20.5917 12.8891ZM19.6859 12.8929C19.8377 13.0419 19.9899 13.2018 20.0687 13.4076C20.1202 13.559 20.1408 13.7188 20.1677 13.8763C20.2219 14.1655 20.4354 14.4144 20.7037 14.5035C20.8075 14.541 20.9172 14.5602 21.0166 14.6094C21.1528 14.744 21.0731 15.0173 20.8993 15.074C20.7699 15.1246 20.602 15.1926 20.606 15.3674C20.6011 15.8816 20.4359 16.3968 20.109 16.7854C19.6989 17.2832 19.0537 17.5799 18.4241 17.5063C17.9074 17.4876 17.4113 17.2152 17.0678 16.8154C16.7271 16.423 16.5516 15.8957 16.5466 15.3688C16.5493 15.1832 16.3649 15.1194 16.2292 15.0655C16.0622 14.9854 16.0447 14.7655 16.1092 14.6066C16.2753 14.6999 16.4799 14.7637 16.6572 14.6633C16.848 14.5762 16.9398 14.3591 16.9451 14.151C16.9581 13.9246 17.1547 13.7348 17.371 13.7366C17.8353 13.7282 18.2996 13.7399 18.764 13.7324C18.9811 13.7305 19.1916 13.6054 19.3062 13.4132C19.3922 13.2857 19.3904 13.1254 19.4298 12.981C19.4696 12.8723 19.5999 12.9065 19.6859 12.8929ZM19.0747 18.0248C19.0743 18.2802 19.076 18.5352 19.0729 18.7907C18.9019 18.9632 18.7317 19.1366 18.5647 19.3133C18.4635 19.2149 18.3646 19.1146 18.2669 19.0124C18.194 18.9374 18.1201 18.8629 18.0457 18.7893C18.044 18.5333 18.0453 18.2769 18.0449 18.021C18.1644 18.0379 18.284 18.0543 18.404 18.0683C18.6287 18.0777 18.8531 18.0604 19.0747 18.0248ZM20.8304 19.3424C21.2056 19.4746 21.4631 19.8871 21.4487 20.2982C21.4474 20.8447 21.4483 21.3908 21.4478 21.9374C21.2347 21.9374 21.022 21.9374 20.8089 21.9374C20.1565 21.9374 19.5037 21.9374 18.8508 21.9374C18.8513 21.3712 18.8499 20.8044 18.8513 20.2382C18.9614 20.3141 19.0653 20.4008 19.1835 20.4622C19.3169 20.5279 19.4746 20.4397 19.5287 20.3043C19.6957 19.9654 19.8538 19.6218 20.0204 19.2824C20.0535 19.2135 20.0862 19.1441 20.1184 19.0747C20.3557 19.1647 20.5931 19.2529 20.8304 19.3424ZM17.6204 20.3174C17.6781 20.4538 17.8429 20.5269 17.9737 20.4599C18.0937 20.3976 18.2007 20.3122 18.3131 20.2368C18.314 20.8035 18.3131 21.3707 18.3135 21.9374C17.448 21.9374 16.582 21.9374 15.7165 21.9374C15.7169 21.3594 15.7156 20.781 15.7169 20.203C15.7071 19.813 15.982 19.4577 16.3272 19.3349C16.5596 19.2482 16.7911 19.1601 17.0231 19.0724C17.225 19.4858 17.4175 19.9044 17.6204 20.3174ZM18.1478 19.6738C18.0874 19.7122 18.0269 19.7516 17.9665 19.7905C17.8725 19.5876 17.7686 19.3893 17.6857 19.1812C17.8402 19.3448 17.9974 19.5055 18.1478 19.6738ZM19.4472 19.1999C19.3626 19.3987 19.274 19.5965 19.1692 19.7849C19.1078 19.7493 19.0496 19.708 18.9905 19.6677C19.1432 19.5121 19.2883 19.348 19.4472 19.1999Z" fill="#223E5C"/>
<path d="M5.70862 11.2776C5.17086 10.9368 4.51534 10.8089 3.89609 10.9265C3.28042 11.0362 2.70639 11.3812 2.30385 11.8809C1.81669 12.4795 1.58027 13.3012 1.69534 14.0807C1.50057 14.2153 1.34072 14.4239 1.32549 14.676C1.27266 15.0553 1.49206 15.4209 1.80639 15.5957C1.86012 16.2628 2.15609 16.9059 2.63071 17.3559C2.81071 17.5331 3.02206 17.6695 3.23609 17.796C3.08251 17.8593 2.9137 17.8987 2.78295 18.0098C2.64191 18.1382 2.69788 18.3529 2.68624 18.524C2.4028 18.63 2.11892 18.735 1.83639 18.8428C1.30579 19.0715 0.950716 19.6546 0.940866 20.2504C0.939522 20.8762 0.941313 21.502 0.93997 22.1278C0.935939 22.2384 0.956985 22.3626 1.04788 22.4329C1.11684 22.4957 1.21176 22.4995 1.29773 22.5004C3.34266 22.499 5.38713 22.5004 7.43161 22.5C7.58743 22.522 7.75041 22.395 7.74415 22.2243C7.75131 21.5667 7.74325 20.9085 7.74773 20.2509C7.76295 19.8093 7.56191 19.3757 7.24758 19.087C6.91355 18.7715 6.44564 18.7171 6.05116 18.5203C6.02743 18.3525 6.09146 18.1317 5.93788 18.0154C5.79594 17.9282 5.63609 17.879 5.48967 17.8007C6.29071 17.3896 6.85265 16.5257 6.91892 15.5934C7.24041 15.4284 7.45041 15.0506 7.39847 14.6751C7.38056 14.4281 7.23012 14.2143 7.03131 14.0892C7.09758 13.5576 7.02683 13.0031 6.8034 12.5184C6.69594 12.3187 6.47385 12.2381 6.30728 12.104C6.15459 11.9864 5.95803 11.9039 5.87071 11.7168C5.804 11.5753 5.8528 11.3728 5.70862 11.2776ZM5.29176 11.6789C5.34818 11.9278 5.47221 12.1542 5.65355 12.3262C5.57833 12.3295 5.50221 12.3337 5.42653 12.337C5.31594 12.3937 5.1834 12.33 5.07683 12.3895C5.0043 12.495 4.86325 12.5118 4.7925 12.6187C4.71683 12.7204 4.67385 12.8432 4.67295 12.9735C4.67071 12.9604 4.66668 12.9342 4.66489 12.9211C4.65728 13.011 4.64161 13.1686 4.52519 13.1681C4.31833 13.1798 4.11056 13.1681 3.9028 13.1723C3.60101 13.1798 3.29743 13.1531 2.99698 13.1878C2.6231 13.2487 2.33161 13.5604 2.20937 13.9251C2.16146 13.3293 2.3343 12.7143 2.70594 12.2568C3.10176 11.7632 3.7134 11.4379 4.334 11.4595C4.66668 11.4271 4.994 11.5321 5.29176 11.6789ZM6.51056 13.8431C6.45146 13.672 6.44698 13.4868 6.39191 13.3148C6.34534 13.1615 6.26832 13.0209 6.194 12.8807C6.23698 12.884 6.32295 12.891 6.36594 12.8943C6.49534 13.1882 6.52892 13.5225 6.51056 13.8431ZM5.79325 13.2726C5.9634 13.5698 5.88728 13.9598 6.11161 14.2298C6.25444 14.4328 6.48952 14.5148 6.7134 14.5739C6.93997 14.61 6.89967 14.9714 6.72325 15.0539C6.58489 15.1223 6.37982 15.1734 6.39056 15.3773C6.38161 15.9159 6.19579 16.4545 5.83758 16.8468C5.4225 17.3114 4.79564 17.5785 4.18758 17.5007C3.45236 17.4614 2.77758 16.9303 2.49728 16.2234C2.37549 15.9421 2.34639 15.6323 2.32579 15.3281C2.30788 15.1542 2.1243 15.1228 2.00161 15.0586C1.84803 14.9732 1.82295 14.7576 1.90221 14.6081C2.05713 14.6962 2.24564 14.759 2.41489 14.676C2.61952 14.5978 2.72519 14.3723 2.73057 14.1553C2.73952 13.9171 2.954 13.724 3.17877 13.7357C3.62788 13.7296 4.07698 13.7386 4.52609 13.7329C4.78803 13.7386 5.04549 13.567 5.14176 13.3101C5.18653 13.1976 5.18385 13.0715 5.2237 12.9576C5.28012 12.8831 5.38579 12.8864 5.46594 12.9046C5.59937 12.9993 5.7028 13.1343 5.79325 13.2726ZM4.83594 18.0253C4.83594 18.2798 4.83683 18.5343 4.83504 18.7889C4.67071 18.9628 4.50862 19.139 4.34474 19.3134C4.23997 19.2023 4.13564 19.0907 4.03131 18.9792C3.97176 18.915 3.91176 18.8512 3.85131 18.7875C3.85042 18.5315 3.85086 18.2756 3.85086 18.0201C3.95027 18.0351 4.04967 18.0506 4.14862 18.0656C4.37833 18.0792 4.60892 18.0661 4.83594 18.0253ZM6.5925 19.342C6.93638 19.4625 7.21579 19.815 7.20862 20.2035C7.21041 20.7815 7.20862 21.3595 7.20907 21.9375C6.99056 21.9375 6.77161 21.9375 6.5531 21.9375C5.90609 21.9375 5.25907 21.9375 4.61206 21.9375C4.61206 21.3707 4.61206 20.8045 4.61206 20.2378C4.72579 20.3132 4.8337 20.399 4.95459 20.46C5.07415 20.5195 5.22907 20.4646 5.28997 20.3418C5.47042 19.9996 5.61459 19.6373 5.79907 19.2979C5.82862 19.2248 5.85862 19.1521 5.88862 19.0795C6.12415 19.1639 6.35788 19.2543 6.5925 19.342ZM2.80982 19.0729C3.0037 19.4821 3.19803 19.8909 3.39415 20.2992C3.44519 20.4281 3.58624 20.5214 3.71922 20.4721C3.84907 20.415 3.95698 20.317 4.07474 20.2378C4.07519 20.804 4.07474 21.3707 4.07474 21.9375C3.20922 21.9375 2.34325 21.9375 1.47773 21.9375C1.47773 21.39 1.47863 20.842 1.47684 20.2945C1.4643 19.8792 1.72892 19.4653 2.10728 19.3331C2.34191 19.2473 2.57519 19.1578 2.80982 19.0729ZM5.24206 19.1798C5.15653 19.3879 5.05355 19.5871 4.95907 19.7906C4.89862 19.7517 4.83862 19.7118 4.77818 19.6734C4.92862 19.5046 5.08624 19.3429 5.24206 19.1798ZM3.93594 19.6739C3.87639 19.7109 3.81773 19.7498 3.75549 19.7831C3.65161 19.5965 3.5634 19.4001 3.48057 19.2023C3.63997 19.3514 3.78683 19.514 3.93594 19.6739Z" fill="#223E5C"/>
<path d="M11.7296 14.3409C11.739 14.1867 11.6087 14.0461 11.4614 14.0508C11.3141 14.048 11.186 14.1891 11.1959 14.3433C11.1914 15.2503 11.1959 16.1583 11.1941 17.0658C10.4844 17.9461 9.77782 18.8292 9.06677 19.7091C8.98707 19.8042 8.89841 19.9261 8.94498 20.0611C8.99423 20.2687 9.28259 20.332 9.40573 20.16C10.0957 19.3162 10.7656 18.4537 11.4623 17.6161C12.1098 18.3942 12.7344 19.1939 13.3724 19.9809C13.4678 20.0878 13.5471 20.2486 13.7033 20.2598C13.8587 20.2781 14.0038 20.1291 13.9921 19.9664C13.9912 19.8741 13.9295 19.8028 13.8784 19.7348C13.1611 18.847 12.4483 17.9559 11.7318 17.0672C11.7292 16.1583 11.7345 15.2494 11.7296 14.3409Z" fill="#223E5C"/>
<path d="M12.845 1.93034C11.9495 1.31487 10.6989 1.39315 9.85264 2.06909C9.0798 2.66206 8.64995 3.71299 8.79861 4.70721C8.62129 4.83143 8.46726 5.01284 8.43726 5.24159C8.3598 5.62784 8.56488 6.03987 8.90249 6.20956C8.97816 7.13955 9.5298 8.0119 10.3389 8.41502C10.1822 8.48768 10.0071 8.52752 9.86742 8.63627C9.71786 8.75815 9.77607 8.97518 9.75682 9.1458C9.36145 9.33612 8.89801 9.39893 8.56622 9.71533C8.25189 10.0022 8.05622 10.433 8.05935 10.8717C8.06249 11.5308 8.05532 12.1899 8.06249 12.8489C8.06025 13.0158 8.21741 13.1442 8.37144 13.125C10.4311 13.125 12.4909 13.1255 14.551 13.1246C14.7046 13.1428 14.8622 13.0158 14.8626 12.8499C14.8707 12.2077 14.8626 11.5655 14.8662 10.9238C14.8765 10.3252 14.5331 9.73127 14.0083 9.48518C13.7137 9.36893 13.4146 9.26627 13.1195 9.15002C13.107 8.9794 13.1688 8.75862 13.0183 8.63627C12.8858 8.54487 12.73 8.49987 12.5876 8.42862C13.3913 8.02268 13.9479 7.15924 14.0244 6.23112C14.2447 6.08299 14.4476 5.87159 14.4919 5.58846C14.5685 5.24815 14.418 4.88252 14.1306 4.70627C14.2067 4.15174 14.1274 3.55549 13.8597 3.06612C13.6116 2.82143 13.2776 2.6869 13.0322 2.43846C12.8974 2.30018 12.9735 2.06768 12.845 1.93034ZM12.3923 2.30487C12.4528 2.55284 12.5746 2.78065 12.7582 2.95128C12.4774 2.95268 12.1514 2.93909 11.9486 3.18237C11.7834 3.33612 11.7838 3.57612 11.7149 3.77862C11.4901 3.81706 11.2609 3.7894 11.0343 3.79737C10.7432 3.80159 10.4517 3.78659 10.1607 3.8044C9.76757 3.84331 9.43354 4.15971 9.32025 4.55065C9.24055 3.81706 9.54413 3.05815 10.0886 2.59221C10.441 2.29268 10.8888 2.08784 11.3468 2.08924C11.7068 2.04003 12.0695 2.14128 12.3923 2.30487ZM13.4791 3.51378C13.5744 3.81612 13.6604 4.14049 13.5946 4.45924C13.5588 4.12643 13.4777 3.79643 13.2995 3.51378C13.3595 3.51378 13.4195 3.51378 13.4791 3.51378ZM12.5697 3.51706C12.704 3.64831 12.8459 3.7819 12.9189 3.96284L12.9135 3.93284C12.9906 4.09877 13.0246 4.28018 13.0488 4.46159C13.0873 4.73065 13.2601 4.97346 13.4952 5.08924C13.6246 5.15393 13.7697 5.17127 13.8995 5.23315C13.9922 5.30487 13.9859 5.45018 13.9434 5.55049C13.865 5.75674 13.5592 5.70424 13.505 5.92877C13.4715 6.18377 13.4728 6.44768 13.3828 6.6919C13.1182 7.55159 12.275 8.18018 11.4086 8.1258C10.4406 8.13518 9.5598 7.28768 9.45861 6.28409C9.42906 6.12706 9.47742 5.93487 9.35697 5.81112C9.24682 5.71971 9.07174 5.72159 9.00189 5.57674C8.93473 5.47221 8.96473 5.34377 8.99562 5.23221C9.12503 5.29362 9.26294 5.36721 9.4098 5.33393C9.64622 5.30018 9.82667 5.06956 9.82712 4.82206C9.82757 4.58252 10.0197 4.36221 10.2525 4.36221C10.715 4.35377 11.1776 4.36409 11.6406 4.35846C11.8595 4.3594 12.0744 4.23799 12.1917 4.04393C12.28 3.9169 12.2809 3.75612 12.3176 3.60987C12.3525 3.50065 12.485 3.53112 12.5697 3.51706ZM11.9549 8.66252C11.9558 8.91377 11.9562 9.16502 11.954 9.41627C11.787 9.58315 11.6397 9.77159 11.4637 9.92908C11.3558 9.83721 11.2644 9.72658 11.1686 9.62158C11.1023 9.55315 11.037 9.48377 10.9707 9.41487C10.9698 9.1594 10.9707 8.90346 10.9703 8.64752C11.2367 8.71362 11.5098 8.69627 11.7803 8.6869C11.8385 8.67846 11.8967 8.67049 11.9549 8.66252ZM9.91488 9.7008C10.1106 10.1147 10.3071 10.5277 10.5059 10.9397C10.5623 11.0775 10.7285 11.1549 10.8601 11.086C10.9779 11.0227 11.0831 10.9378 11.1941 10.8633C11.1941 11.4296 11.1941 11.9958 11.1941 12.5625C10.3286 12.5625 9.46264 12.5625 8.59712 12.5625C8.59712 12.016 8.59801 11.4699 8.59622 10.9233C8.58727 10.5206 8.82503 10.1035 9.19577 9.96799C9.43533 9.87799 9.67354 9.78424 9.91488 9.7008ZM13.6926 9.99612C14.0473 10.1161 14.3294 10.4785 14.3285 10.875C14.3298 11.4375 14.3276 12 14.3285 12.5621C14.1077 12.5625 13.887 12.5625 13.6662 12.5625C13.0215 12.5625 12.3762 12.5625 11.7314 12.5625C11.7314 11.9963 11.7314 11.4305 11.7314 10.8642C11.8501 10.9425 11.9594 11.0391 12.0888 11.0963C12.2186 11.146 12.361 11.0621 12.4138 10.9355C12.5746 10.6083 12.7273 10.2769 12.8871 9.94924C12.9212 9.87752 12.9552 9.80627 12.9892 9.73455C13.2243 9.81987 13.458 9.90987 13.6926 9.99612ZM12.357 9.7969C12.2612 10.0031 12.16 10.2071 12.0646 10.4133C12.0023 10.3758 11.941 10.3374 11.8788 10.2994C12.0355 10.1288 12.1958 9.96237 12.357 9.7969ZM11.0379 10.298C10.9765 10.3369 10.9156 10.3767 10.8538 10.4161C10.7598 10.2103 10.6577 10.0092 10.5659 9.80252C10.7249 9.96565 10.8825 10.1306 11.0379 10.298Z" fill="#223E5C"/>
</svg>
