<svg width="20" height="17" viewBox="0 0 20 17" fill="none" xmlns="http://www.w3.org/2000/svg">
<path d="M9.0483 1.78803L2.11538 13.362C1.97244 13.6095 1.8968 13.8902 1.896 14.176C1.8952 14.4619 1.96926 14.743 2.11081 14.9913C2.25237 15.2396 2.45648 15.4466 2.70284 15.5915C2.9492 15.7365 3.22923 15.8144 3.51506 15.8176H17.3809C17.6667 15.8144 17.9468 15.7365 18.1931 15.5915C18.4395 15.4466 18.6436 15.2396 18.7851 14.9913C18.9267 14.743 19.0008 14.4619 19 14.176C18.9992 13.8902 18.9235 13.6095 18.7806 13.362L11.8477 1.78803C11.7017 1.54747 11.4963 1.34858 11.2511 1.21055C11.0059 1.07251 10.7293 1 10.448 1C10.1666 1 9.89001 1.07251 9.64484 1.21055C9.39967 1.34858 9.19422 1.54747 9.0483 1.78803V1.78803Z" stroke="#D0342C" stroke-width="2" stroke-linecap="round" stroke-linejoin="round"/>
<path d="M10.4902 6.73047V10.0046" stroke="#D0342C" stroke-width="2" stroke-linecap="round" stroke-linejoin="round"/>
<path d="M10.4902 13.2773H10.499" stroke="#D0342C" stroke-width="2" stroke-linecap="round" stroke-linejoin="round"/>
</svg>
